<svg xmlns="http://www.w3.org/2000/svg" width="64" height="64" viewBox="0 0 64 64">
  <defs>
    <linearGradient id="bg" x1="0" y1="0" x2="1" y2="1">
      <stop offset="0%" stop-color="#a478ff"/>
      <stop offset="50%" stop-color="#8855f6"/>
      <stop offset="100%" stop-color="#6b3fd4"/>
    </linearGradient>
  </defs>
  <rect width="64" height="64" rx="14" fill="url(#bg)"/>
  <g transform="translate(14,13)" fill="none" stroke="white" stroke-width="2.8" stroke-linecap="round" stroke-linejoin="round">
    <path d="M18 2a6 6 0 0 1 6 6v0a6 6 0 0 1-6 6h-1a2 2 0 0 0-2 2v6"/>
    <path d="M18 2a6 6 0 0 0-6 6v0a6 6 0 0 0 6 6h1a2 2 0 0 1 2 2v6"/>
    <circle cx="15" cy="30" r="4" fill="white" stroke="white"/>
    <circle cx="21" cy="30" r="4" fill="white" stroke="white"/>
    <circle cx="6" cy="12" r="3" fill="white" stroke="white"/>
    <path d="M6 9V4"/>
  </g>
</svg>
