<svg xmlns="http://www.w3.org/2000/svg" width="64" height="64" viewBox="0 0 64 64">
  <defs>
    <linearGradient id="bg" x1="0" y1="0" x2="1" y2="1">
      <stop offset="0%" stop-color="#a478ff"/>
      <stop offset="50%" stop-color="#7c4ddf"/>
      <stop offset="100%" stop-color="#5e35b1"/>
    </linearGradient>
  </defs>
  <rect width="64" height="64" rx="16" fill="url(#bg)"/>
  <g transform="translate(15,10)" fill="none" stroke="white" stroke-width="3" stroke-linecap="round" stroke-linejoin="round">
    <path d="M17 4 L17 8"/>
    <path d="M17 36 L17 40"/>
    <path d="M17 8 C10 8, 7 12, 7 16 C7 20, 10 23, 17 23 C24 23, 27 26, 27 30 C27 34, 24 38, 17 38"/>
    <path d="M17 8 C24 8, 27 10, 27 14"/>
    <path d="M17 38 C10 38, 7 36, 7 32"/>
    <circle cx="9" cy="14" r="3.5" fill="white" stroke="none" opacity="0.9"/>
    <path d="M9 10.5 L9 6" stroke-width="2.5"/>
    <circle cx="25" cy="32" r="3.5" fill="white" stroke="none" opacity="0.9"/>
  </g>
</svg>
